<?xml version="1.0" encoding="UTF-8"?>
<svg xmlns="http://www.w3.org/2000/svg" width="1300" height="1428" viewBox="0 0 1300 1428">
<rect width="100%" height="100%" fill="#ffffff"/>
<rect x="34" y="32" width="1232" height="1364" fill="none" stroke="#1f2937" stroke-width="2"/>
<text x="60" y="66" font-size="24" fill="#111827" font-weight="800">EncolarAsync_DebeInsertarComandoEnCola</text>
<text x="60" y="96" font-size="14" fill="#4b5563" font-weight="600">Diagrama detallado de flujo del test</text>
<rect x="910" y="54" width="300" height="42" rx="6" fill="#e8f5ee" stroke="#1f6b3a" stroke-width="2"/>
<text x="1060.0" y="82.0" text-anchor="middle" font-size="15" fill="#1f6b3a" font-weight="800">Estado: CORRECTO</text>
<ellipse cx="655.0" cy="143.0" rx="105.0" ry="33.0" fill="#050505" stroke="#000" stroke-width="2"/>
<text x="655.0" y="148.0" text-anchor="middle" font-size="15" fill="#ffffff" font-weight="700">Inicio</text>
<line x1="655.0" y1="176" x2="655.0" y2="222" stroke="#1f2937" stroke-width="2.5"/>
<polygon points="648.0,222 662.0,222 655.0,234" fill="#1f2937"/>
<rect x="460" y="234" width="390" height="112" fill="#17445f" stroke="#0e2f42" stroke-width="2"/>
<text x="655.0" y="285.5" text-anchor="middle" font-size="15" fill="#ffffff" font-weight="700">PrepararTestAsync registra la ruta</text>
<text x="655.0" y="304.5" text-anchor="middle" font-size="15" fill="#ffffff" font-weight="700">almacen_cola_encolar_insertar</text>
<path d="M910,252.0 C910,238.0 1210,238.0 1210,252.0 L1210,328.0 C1210,342.0 910,342.0 910,328.0 Z" fill="#2b6b82" stroke="#0e2f42" stroke-width="2"/>
<ellipse cx="1060.0" cy="252.0" rx="150.0" ry="18" fill="#397d96" stroke="#0e2f42" stroke-width="2"/>
<path d="M910,328.0 C910,342.0 1210,342.0 1210,328.0" fill="none" stroke="#0e2f42" stroke-width="2"/>
<text x="1060.0" y="280.0" text-anchor="middle" font-size="13" fill="#ffffff" font-weight="700">per_comandos_registrados</text>
<text x="928" y="304" font-size="12" fill="#eef7fb" font-weight="500">ruta_comando creada</text>
<text x="928" y="320" font-size="12" fill="#eef7fb" font-weight="500">descripcion de prueba</text>
<text x="928" y="336" font-size="12" fill="#eef7fb" font-weight="500">activo = true</text>
<path d="M850,290.0 H880.0 V290.0 H898" fill="none" stroke="#1f2937" stroke-width="2.2"/>
<polygon points="898,283.0 898,297.0 910,290.0" fill="#1f2937"/>
<text x="888.0" y="282.0" font-size="13" fill="#1f2937" font-weight="700">BD</text>
<line x1="655.0" y1="346" x2="655.0" y2="392" stroke="#1f2937" stroke-width="2.5"/>
<polygon points="648.0,392 662.0,392 655.0,404" fill="#1f2937"/>
<rect x="460" y="404" width="390" height="128" fill="#17445f" stroke="#0e2f42" stroke-width="2"/>
<text x="655.0" y="454.0" text-anchor="middle" font-size="15" fill="#ffffff" font-weight="700">Crear ComandoEnCola con ruta,</text>
<text x="655.0" y="473.0" text-anchor="middle" font-size="15" fill="#ffffff" font-weight="700">argumentos, JSON, estado pendiente</text>
<text x="655.0" y="492.0" text-anchor="middle" font-size="15" fill="#ffffff" font-weight="700">e intentos cero</text>
<path d="M910,404.0 H1210 V514.0 C1150,528.0 970,500.0 910,518.0 Z" fill="#eef6fb" stroke="#16415b" stroke-width="2"/>
<text x="1060.0" y="436.0" text-anchor="middle" font-size="13" fill="#183548" font-weight="700">ComandoEnCola</text>
<text x="928" y="454" font-size="12" fill="#263244" font-weight="500">argumentos: --mensaje=hola</text>
<text x="928" y="470" font-size="12" fill="#263244" font-weight="500">datos_comando: JSON</text>
<text x="928" y="486" font-size="12" fill="#263244" font-weight="500">estado: pendiente</text>
<text x="928" y="502" font-size="12" fill="#263244" font-weight="500">intentos: 0</text>
<path d="M850,468.0 H880.0 V468.0 H898" fill="none" stroke="#1f2937" stroke-width="2.2"/>
<polygon points="898,461.0 898,475.0 910,468.0" fill="#1f2937"/>
<text x="888.0" y="460.0" font-size="13" fill="#1f2937" font-weight="700">datos</text>
<line x1="655.0" y1="532" x2="655.0" y2="578" stroke="#1f2937" stroke-width="2.5"/>
<polygon points="648.0,578 662.0,578 655.0,590" fill="#1f2937"/>
<rect x="460" y="590" width="390" height="112" fill="#17445f" stroke="#0e2f42" stroke-width="2"/>
<text x="655.0" y="641.5" text-anchor="middle" font-size="15" fill="#ffffff" font-weight="700">Ejecutar</text>
<text x="655.0" y="660.5" text-anchor="middle" font-size="15" fill="#ffffff" font-weight="700">_almacen.EncolarAsync(comando)</text>
<path d="M910,608.0 C910,594.0 1210,594.0 1210,608.0 L1210,684.0 C1210,698.0 910,698.0 910,684.0 Z" fill="#2b6b82" stroke="#0e2f42" stroke-width="2"/>
<ellipse cx="1060.0" cy="608.0" rx="150.0" ry="18" fill="#397d96" stroke="#0e2f42" stroke-width="2"/>
<path d="M910,684.0 C910,698.0 1210,698.0 1210,684.0" fill="none" stroke="#0e2f42" stroke-width="2"/>
<text x="1060.0" y="636.0" text-anchor="middle" font-size="13" fill="#ffffff" font-weight="700">per_cola_comandos</text>
<text x="928" y="660" font-size="12" fill="#eef7fb" font-weight="500">inserta fila nueva</text>
<text x="928" y="676" font-size="12" fill="#eef7fb" font-weight="500">genera id</text>
<text x="928" y="692" font-size="12" fill="#eef7fb" font-weight="500">estado pendiente</text>
<path d="M850,646.0 H880.0 V646.0 H898" fill="none" stroke="#1f2937" stroke-width="2.2"/>
<polygon points="898,639.0 898,653.0 910,646.0" fill="#1f2937"/>
<text x="888.0" y="638.0" font-size="13" fill="#1f2937" font-weight="700">BD</text>
<line x1="655.0" y1="702" x2="655.0" y2="748" stroke="#1f2937" stroke-width="2.5"/>
<polygon points="648.0,748 662.0,748 655.0,760" fill="#1f2937"/>
<polygon points="655.0,760 825,824.0 655.0,888 485,824.0" fill="#205872" stroke="#0e2f42" stroke-width="2"/>
<text x="655.0" y="820.5" text-anchor="middle" font-size="14" fill="#ffffff" font-weight="700">¿El id retornado es mayor a</text>
<text x="655.0" y="837.5" text-anchor="middle" font-size="14" fill="#ffffff" font-weight="700">cero?</text>
<rect x="910" y="786.0" width="300" height="76" rx="6" fill="#fff0f0" stroke="#8a1f1f" stroke-width="2"/>
<text x="1060.0" y="828.0" text-anchor="middle" font-size="13" fill="#8a1f1f" font-weight="700">Falla el test</text>
<path d="M825,824.0 H867.5 V824.0 H898" fill="none" stroke="#1f2937" stroke-width="2.2"/>
<polygon points="898,817.0 898,831.0 910,824.0" fill="#1f2937"/>
<text x="875.5" y="816.0" font-size="13" fill="#1f2937" font-weight="700">No</text>
<line x1="655.0" y1="888" x2="655.0" y2="934" stroke="#1f2937" stroke-width="2.5"/>
<polygon points="648.0,934 662.0,934 655.0,946" fill="#1f2937"/>
<text x="667.0" y="917.0" font-size="13" fill="#1f2937" font-weight="700">Si</text>
<rect x="460" y="946" width="390" height="92" fill="#1d526b" stroke="#0e2f42" stroke-width="2"/>
<text x="655.0" y="987.5" text-anchor="middle" font-size="15" fill="#ffffff" font-weight="700">Consultar per_cola_comandos por id</text>
<text x="655.0" y="1006.5" text-anchor="middle" font-size="15" fill="#ffffff" font-weight="700">retornado</text>
<path d="M910,964.0 C910,950.0 1210,950.0 1210,964.0 L1210,1020.0 C1210,1034.0 910,1034.0 910,1020.0 Z" fill="#2b6b82" stroke="#0e2f42" stroke-width="2"/>
<ellipse cx="1060.0" cy="964.0" rx="150.0" ry="18" fill="#397d96" stroke="#0e2f42" stroke-width="2"/>
<path d="M910,1020.0 C910,1034.0 1210,1034.0 1210,1020.0" fill="none" stroke="#0e2f42" stroke-width="2"/>
<text x="1060.0" y="992.0" text-anchor="middle" font-size="13" fill="#ffffff" font-weight="700">per_cola_comandos</text>
<text x="928" y="1016" font-size="12" fill="#eef7fb" font-weight="500">SELECT * WHERE id = @Id</text>
<path d="M850,992.0 H880.0 V992.0 H898" fill="none" stroke="#1f2937" stroke-width="2.2"/>
<polygon points="898,985.0 898,999.0 910,992.0" fill="#1f2937"/>
<text x="888.0" y="984.0" font-size="13" fill="#1f2937" font-weight="700">BD</text>
<line x1="655.0" y1="1038" x2="655.0" y2="1084" stroke="#1f2937" stroke-width="2.5"/>
<polygon points="648.0,1084 662.0,1084 655.0,1096" fill="#1f2937"/>
<polygon points="655.0,1096 825,1160.0 655.0,1224 485,1160.0" fill="#205872" stroke="#0e2f42" stroke-width="2"/>
<text x="655.0" y="1148.0" text-anchor="middle" font-size="14" fill="#ffffff" font-weight="700">¿Fila existe y conserva</text>
<text x="655.0" y="1165.0" text-anchor="middle" font-size="14" fill="#ffffff" font-weight="700">ruta, argumentos y estado</text>
<text x="655.0" y="1182.0" text-anchor="middle" font-size="14" fill="#ffffff" font-weight="700">pendiente?</text>
<rect x="910" y="1122.0" width="300" height="76" rx="6" fill="#fff0f0" stroke="#8a1f1f" stroke-width="2"/>
<text x="1060.0" y="1164.0" text-anchor="middle" font-size="13" fill="#8a1f1f" font-weight="700">Falla el test</text>
<path d="M825,1160.0 H867.5 V1160.0 H898" fill="none" stroke="#1f2937" stroke-width="2.2"/>
<polygon points="898,1153.0 898,1167.0 910,1160.0" fill="#1f2937"/>
<text x="875.5" y="1152.0" font-size="13" fill="#1f2937" font-weight="700">No</text>
<line x1="655.0" y1="1224" x2="655.0" y2="1270" stroke="#1f2937" stroke-width="2.5"/>
<polygon points="648.0,1270 662.0,1270 655.0,1282" fill="#1f2937"/>
<text x="667.0" y="1253.0" font-size="13" fill="#1f2937" font-weight="700">Si</text>
<ellipse cx="655.0" cy="1315.0" rx="105.0" ry="33.0" fill="#1f6b3a" stroke="#0e2f42" stroke-width="2"/>
<text x="655.0" y="1320.0" text-anchor="middle" font-size="14" fill="#ffffff" font-weight="700">Fin correcto</text>
<text x="60" y="1386" font-size="13" fill="#6b7280">Formato: ovalo inicio/fin, rectangulo accion, cilindro BD, documento datos, rombo decision/assert.</text>
</svg>