<?xml version="1.0" encoding="UTF-8"?>
<svg xmlns="http://www.w3.org/2000/svg" width="1300" height="1228" viewBox="0 0 1300 1228">
<rect width="100%" height="100%" fill="#ffffff"/>
<rect x="34" y="32" width="1232" height="1164" fill="none" stroke="#1f2937" stroke-width="2"/>
<text x="60" y="66" font-size="18" fill="#111827" font-weight="800">ObtenerResultadoAsync_CompletadoConPayload_DebeDeserializarSalida</text>
<text x="60" y="96" font-size="14" fill="#4b5563" font-weight="600">ResultadosComandosTest - diagrama detallado de flujo del test</text>
<rect x="910" y="54" width="300" height="42" rx="6" fill="#e8f5ee" stroke="#1f6b3a" stroke-width="2"/>
<text x="1060.0" y="82.0" text-anchor="middle" font-size="15" fill="#1f6b3a" font-weight="800">Estado: CORRECTO</text>
<ellipse cx="655.0" cy="133.0" rx="105.0" ry="33.0" fill="#050505" stroke="#000" stroke-width="2"/>
<text x="655.0" y="138.0" text-anchor="middle" font-size="15" fill="#fff" font-weight="700">Inicio</text>
<line x1="655.0" y1="166" x2="655.0" y2="212" stroke="#1f2937" stroke-width="2.5"/>
<polygon points="648.0,212 662.0,212 655.0,224" fill="#1f2937"/>
<rect x="460" y="224" width="390" height="104" fill="#17445f" stroke="#0e2f42" stroke-width="2"/>
<text x="655.0" y="262.0" text-anchor="middle" font-size="15" fill="#fff" font-weight="700">Registrar procesador</text>
<text x="655.0" y="281.0" text-anchor="middle" font-size="15" fill="#fff" font-weight="700">ResultadoTexto por ruta</text>
<text x="655.0" y="300.0" text-anchor="middle" font-size="15" fill="#fff" font-weight="700">resultado_texto</text>
<path d="M910,221.0 H1210 V313.0 C1150,327.0 970,299.0 910,317.0 Z" fill="#eef6fb" stroke="#16415b" stroke-width="2"/>
<text x="1060.0" y="253.0" text-anchor="middle" font-size="13" fill="#183548" font-weight="700">Registro procesadores</text>
<text x="928" y="277.0" font-size="12" fill="#263244" font-weight="500">tipo/version del procesador</text>
<path d="M850,276.0 H880.0 V276.0 H898" fill="none" stroke="#1f2937" stroke-width="2.2"/>
<polygon points="898,269.0 898,283.0 910,276.0" fill="#1f2937"/>
<text x="888.0" y="268.0" font-size="13" fill="#1f2937" font-weight="700">datos</text>
<line x1="655.0" y1="328" x2="655.0" y2="374" stroke="#1f2937" stroke-width="2.5"/>
<polygon points="648.0,374 662.0,374 655.0,386" fill="#1f2937"/>
<rect x="460" y="386" width="390" height="124" fill="#17445f" stroke="#0e2f42" stroke-width="2"/>
<text x="655.0" y="434.0" text-anchor="middle" font-size="15" fill="#fff" font-weight="700">Mock almacen retorna</text>
<text x="655.0" y="453.0" text-anchor="middle" font-size="15" fill="#fff" font-weight="700">ResultadoComandoPersistido</text>
<text x="655.0" y="472.0" text-anchor="middle" font-size="15" fill="#fff" font-weight="700">completado con Payload.Contenido</text>
<path d="M910,401.0 C910,387.0 1210,387.0 1210,401.0 L1210,495.0 C1210,509.0 910,509.0 910,495.0 Z" fill="#2b6b82" stroke="#0e2f42" stroke-width="2"/>
<ellipse cx="1060.0" cy="401.0" rx="150.0" ry="18" fill="#397d96" stroke="#0e2f42" stroke-width="2"/>
<path d="M910,495.0 C910,509.0 1210,509.0 1210,495.0" fill="none" stroke="#0e2f42" stroke-width="2"/>
<text x="1060.0" y="429.0" text-anchor="middle" font-size="13" fill="#fff" font-weight="700">Mock almacen</text>
<text x="928" y="453.0" font-size="12" fill="#eef7fb" font-weight="500">Estado completado</text>
<text x="928" y="469.0" font-size="12" fill="#eef7fb" font-weight="500">Duracion 20 ms</text>
<text x="928" y="485.0" font-size="12" fill="#eef7fb" font-weight="500">Contenido salida recuperada</text>
<path d="M850,448.0 H880.0 V448.0 H898" fill="none" stroke="#1f2937" stroke-width="2.2"/>
<polygon points="898,441.0 898,455.0 910,448.0" fill="#1f2937"/>
<text x="888.0" y="440.0" font-size="13" fill="#1f2937" font-weight="700">BD</text>
<line x1="655.0" y1="510" x2="655.0" y2="556" stroke="#1f2937" stroke-width="2.5"/>
<polygon points="648.0,556 662.0,556 655.0,568" fill="#1f2937"/>
<rect x="460" y="568" width="390" height="84" fill="#17445f" stroke="#0e2f42" stroke-width="2"/>
<text x="655.0" y="605.5" text-anchor="middle" font-size="15" fill="#fff" font-weight="700">Ejecutar</text>
<text x="655.0" y="624.5" text-anchor="middle" font-size="15" fill="#fff" font-weight="700">ResultadosComandos.ObtenerResultadoAsync(10)</text>
<line x1="655.0" y1="652" x2="655.0" y2="698" stroke="#1f2937" stroke-width="2.5"/>
<polygon points="648.0,698 662.0,698 655.0,710" fill="#1f2937"/>
<rect x="460" y="710" width="390" height="108" fill="#17445f" stroke="#0e2f42" stroke-width="2"/>
<text x="655.0" y="759.5" text-anchor="middle" font-size="15" fill="#fff" font-weight="700">Buscar procesador por tipo/version</text>
<text x="655.0" y="778.5" text-anchor="middle" font-size="15" fill="#fff" font-weight="700">y deserializar contenido</text>
<path d="M910,707.0 H1210 V803.0 C1150,817.0 970,789.0 910,807.0 Z" fill="#eef6fb" stroke="#16415b" stroke-width="2"/>
<text x="1060.0" y="739.0" text-anchor="middle" font-size="13" fill="#183548" font-weight="700">Payload inline</text>
<text x="928" y="763.0" font-size="12" fill="#263244" font-weight="500">text/plain</text>
<text x="928" y="779.0" font-size="12" fill="#263244" font-weight="500">salida recuperada</text>
<path d="M850,764.0 H880.0 V764.0 H898" fill="none" stroke="#1f2937" stroke-width="2.2"/>
<polygon points="898,757.0 898,771.0 910,764.0" fill="#1f2937"/>
<text x="888.0" y="756.0" font-size="13" fill="#1f2937" font-weight="700">datos</text>
<line x1="655.0" y1="818" x2="655.0" y2="864" stroke="#1f2937" stroke-width="2.5"/>
<polygon points="648.0,864 662.0,864 655.0,876" fill="#1f2937"/>
<polygon points="655.0,876 825,940.0 655.0,1004 485,940.0" fill="#205872" stroke="#0e2f42" stroke-width="2"/>
<text x="655.0" y="928.0" text-anchor="middle" font-size="14" fill="#fff" font-weight="700">¿Resultado exitoso, salida</text>
<text x="655.0" y="945.0" text-anchor="middle" font-size="14" fill="#fff" font-weight="700">recuperada y duracion 20</text>
<text x="655.0" y="962.0" text-anchor="middle" font-size="14" fill="#fff" font-weight="700">ms?</text>
<rect x="910" y="902.0" width="300" height="76" rx="6" fill="#fff0f0" stroke="#8a1f1f" stroke-width="2"/>
<text x="1060.0" y="944.0" text-anchor="middle" font-size="13" fill="#8a1f1f" font-weight="700">Falla el test</text>
<path d="M825,940.0 H867.5 V940.0 H898" fill="none" stroke="#1f2937" stroke-width="2.2"/>
<polygon points="898,933.0 898,947.0 910,940.0" fill="#1f2937"/>
<text x="875.5" y="932.0" font-size="13" fill="#1f2937" font-weight="700">No</text>
<line x1="655.0" y1="1004" x2="655.0" y2="1050" stroke="#1f2937" stroke-width="2.5"/>
<polygon points="648.0,1050 662.0,1050 655.0,1062" fill="#1f2937"/>
<text x="667.0" y="1033.0" font-size="13" fill="#1f2937" font-weight="700">Si</text>
<ellipse cx="655.0" cy="1095.0" rx="105.0" ry="33.0" fill="#1f6b3a" stroke="#0e2f42" stroke-width="2"/>
<text x="655.0" y="1100.0" text-anchor="middle" font-size="14" fill="#fff" font-weight="700">Fin correcto</text>
<text x="60" y="1186" font-size="13" fill="#6b7280">Formato: ovalo inicio/fin, rectangulo accion, cilindro BD/mock, documento datos, rombo decision/assert.</text>
</svg>